# xmcd
#
# Track frame offsets: 
#        150
#        30098
#        58467
#        73429
#        108619
#        126325
#        144920
#        170012
#        192818
#        214005
#        230959
#        246006
#        264415
#
# Disc length: 3676 seconds
#
# Revision: 1
# Processed by: cddbd v1.5.2PL0 Copyright (c) Steve Scherf et al.
# Submitted via: ExactAudioCopy v0.99pb5
#
DISCID=c90e5a0d
DTITLE=Dizzy Gillespie - Suprime jazz
DYEAR=1900
DGENRE=Jazz
TTITLE0=It Don`t Mean A Thing
TTITLE1=I Let A Song Go Out Of My Heart
TTITLE2=Girl Of My Dreams
TTITLE3=Impromptu
TTITLE4=Doodlin`
TTITLE5=Stella By Starlight
TTITLE6=A Night In Tunisia
TTITLE7=Tour De Force
TTITLE8=The Champ
TTITLE9=Yesterdays
TTITLE10=Groovin` For Nat
TTITLE11=Annie`s Dance
TTITLE12=Dizzy`s Blues
EXTD=
EXTT0=
EXTT1=
EXTT2=
EXTT3=
EXTT4=
EXTT5=
EXTT6=
EXTT7=
EXTT8=
EXTT9=
EXTT10=
EXTT11=
EXTT12=
PLAYORDER=
